<svg version="1.0" xmlns="http://www.w3.org/2000/svg"
 width="512.000000pt" height="512.000000pt" viewBox="0 0 512.000000 512.000000"
 preserveAspectRatio="xMidYMid meet">
 <style>
    g {
      fill="#000000"; 
	  stroke="none";
    }
    @media (prefers-color-scheme: dark) {
      g {
        fill="#ffffff"; 
		stroke="none";
      }
    }
  </style>
<g transform="translate(0.000000,512.000000) scale(0.100000,-0.100000)">
<path d="M985 4814 c-725 -231 -954 -308 -967 -325 -20 -24 -23 -61 -8 -90 6
-11 180 -132 385 -269 l375 -250 0 -375 0 -376 -73 -72 c-290 -288 -475 -675
-516 -1086 -85 -826 422 -1612 1211 -1876 532 -178 1108 -100 1573 213 431
290 719 768 776 1285 l13 117 150 0 151 -1 155 -196 c122 -154 164 -200 195
-214 34 -16 67 -19 223 -19 199 0 226 5 274 56 42 45 48 75 48 230 l0 144 60
0 c51 0 65 4 85 25 32 31 32 75 2 111 -20 23 -34 28 -85 32 l-62 4 0 142 c0
161 -13 206 -71 247 -33 23 -41 24 -241 27 -173 3 -212 1 -238 -13 -17 -9 -96
-98 -186 -210 l-156 -195 -153 0 -152 0 -8 83 c-18 209 -80 422 -185 632 -84
169 -172 294 -302 431 l-98 102 0 376 0 376 283 188 c155 104 288 192 295 196
9 6 12 -65 12 -338 l0 -346 -35 0 c-57 0 -113 -38 -144 -97 -15 -29 -71 -295
-71 -336 0 -47 39 -108 85 -134 38 -22 50 -23 255 -23 205 0 217 1 255 23 46
26 85 87 85 134 0 41 -56 307 -71 336 -31 59 -87 97 -144 97 l-35 0 -1 428
c-1 235 -4 438 -8 451 -3 13 -18 32 -31 42 -29 21 -1902 620 -1934 618 -12 -1
-448 -138 -971 -305z m1812 -134 c450 -143 824 -263 832 -266 9 -3 -99 -81
-271 -196 l-286 -190 -139 55 c-312 126 -602 180 -968 180 -377 0 -707 -64
-1010 -194 -49 -22 -93 -39 -98 -39 -14 0 -567 373 -561 379 8 10 1637 529
1661 530 12 1 390 -116 840 -259z m-512 -606 c219 -27 464 -93 633 -170 l72
-33 0 -325 c0 -179 -1 -326 -3 -326 -2 0 -52 18 -111 40 -546 206 -1237 210
-1793 11 -60 -21 -116 -42 -125 -46 -17 -7 -18 12 -18 323 l0 330 78 32 c387
162 822 218 1267 164z m1694 -771 c12 -60 25 -116 27 -125 5 -17 -8 -18 -166
-18 -159 0 -171 1 -166 18 3 9 15 58 26 107 12 50 23 98 26 108 5 15 19 17
118 17 l113 0 22 -107z m-1639 -78 c219 -34 484 -117 661 -206 116 -58 322
-316 423 -529 80 -169 135 -365 152 -537 l7 -73 -257 0 -256 0 -4 23 c-3 12
-8 44 -11 72 -18 137 -99 333 -192 463 -304 429 -894 583 -1368 358 -239 -113
-433 -307 -541 -540 -129 -279 -134 -613 -14 -895 216 -507 772 -781 1305
-641 358 95 650 369 768 722 23 68 31 105 53 236 l5 32 256 0 256 0 -7 -72
c-46 -483 -310 -922 -716 -1194 -534 -355 -1217 -363 -1763 -20 -381 239 -638
620 -728 1077 -27 134 -32 403 -11 529 57 344 210 653 437 885 84 86 132 114
310 185 147 59 413 118 625 140 127 13 487 4 610 -15z m-147 -524 c365 -97
640 -399 695 -764 l9 -57 -214 2 -214 3 -22 65 c-72 213 -261 350 -481 350
-100 -1 -153 -12 -236 -53 -221 -108 -332 -385 -250 -621 36 -106 124 -214
221 -274 145 -88 347 -92 503 -9 118 62 229 204 254 323 l8 39 214 0 215 0 -3
-35 c-2 -19 -12 -71 -23 -114 -83 -331 -357 -598 -691 -675 -214 -50 -409 -31
-604 59 -422 194 -639 660 -515 1105 96 343 380 602 736 671 99 19 298 12 398
-15z m-109 -591 c87 -33 176 -124 201 -207 l6 -23 -175 0 c-173 0 -175 0 -205
-26 -40 -33 -43 -83 -6 -119 24 -25 26 -25 205 -25 117 0 180 -4 180 -10 0
-25 -54 -114 -91 -151 -66 -66 -137 -94 -239 -93 -72 0 -94 4 -141 27 -66 32
-142 109 -170 172 -78 177 14 390 199 457 66 24 168 23 236 -2z m2696 -105 l0
-125 -251 0 c-240 0 -250 1 -237 18 7 10 51 66 98 125 l85 107 153 0 152 0 0
-125z m0 -425 l0 -131 -152 3 -153 3 -97 120 c-54 66 -98 123 -98 128 0 4 113
7 250 7 l250 0 0 -130z"/>
<path d="M560 1867 c-33 -17 -50 -53 -50 -110 0 -95 44 -147 112 -132 45 10
61 44 59 128 -1 67 -3 74 -31 100 -33 30 -53 33 -90 14z"/>
<path d="M623 1438 c-12 -6 -27 -24 -34 -40 -16 -38 1 -95 71 -238 127 -260
319 -467 568 -616 115 -69 156 -77 195 -39 30 30 36 78 13 107 -7 9 -46 36
-87 59 -178 101 -340 247 -442 400 -56 85 -140 249 -152 301 -16 62 -77 93
-132 66z"/>
<path d="M1663 521 c-36 -22 -49 -64 -33 -105 13 -35 66 -57 141 -59 46 -2 62
2 78 18 57 57 21 137 -66 150 -27 3 -57 8 -68 11 -11 2 -34 -4 -52 -15z"/>
</g>
</svg>
